<?xml version="1.0" standalone="no"?>
<!DOCTYPE svg PUBLIC "-//W3C//DTD SVG 20010904//EN"
 "http://www.w3.org/TR/2001/REC-SVG-20010904/DTD/svg10.dtd">
<svg version="1.0" xmlns="http://www.w3.org/2000/svg"
 width="1852.000000pt" height="715.000000pt" viewBox="0 0 1852.000000 715.000000"
 preserveAspectRatio="xMidYMid meet">

<g transform="translate(0.000000,715.000000) scale(0.100000,-0.100000)"
fill="#000000" stroke="none">
<path d="M0 3575 l0 -3575 9260 0 9260 0 0 3575 0 3575 -9260 0 -9260 0 0
-3575z m14749 1974 c53 -24 73 -38 66 -50 -3 -4 -29 3 -58 16 -68 32 -120 32
-186 -1 -28 -15 -55 -23 -58 -20 -10 9 6 22 62 51 61 30 114 32 174 4z m2722
-5 c26 -15 50 -33 53 -40 7 -19 -2 -18 -58 11 l-49 25 -1082 0 -1082 0 -48
-25 c-26 -14 -50 -23 -53 -21 -9 10 23 39 63 57 38 18 97 19 1124 19 l1083 0
49 -26z m-2977 -1238 c-12 -31 -89 -65 -219 -96 -71 -18 -141 -38 -157 -46
-37 -19 -54 -19 -37 2 22 27 61 42 194 73 85 20 144 40 174 59 25 16 47 28 49
27 1 -1 0 -10 -4 -19z m-7654 -1884 c92 -25 114 -49 126 -140 l7 -52 -91 0
c-88 0 -90 0 -96 26 -11 42 -57 54 -216 54 -168 0 -200 -10 -200 -64 0 -20 8
-40 21 -51 18 -17 45 -20 257 -25 249 -6 272 -10 314 -57 39 -42 45 -182 12
-261 -15 -38 -53 -57 -147 -74 -79 -14 -435 -22 -462 -10 -11 5 -42 15 -70 21
-63 15 -95 46 -106 102 -18 93 -21 89 86 89 91 0 95 -1 95 -22 0 -12 7 -30 17
-40 14 -16 34 -18 197 -18 201 0 226 6 226 59 0 34 -17 56 -50 66 -14 4 -124
10 -245 15 -292 10 -316 20 -330 145 -3 33 -1 85 4 115 13 66 52 105 115 115
22 4 48 11 56 16 22 13 426 5 480 -9z m1210 -322 l0 -340 -80 0 -80 0 0 340 0
340 80 0 80 0 0 -340z m1672 275 l-4 -65 -74 0 -74 0 0 65 0 65 78 0 77 0 -3
-65z m4628 -197 l-1 -253 225 -3 226 -2 0 -80 0 -80 -317 0 -318 0 0 335 0
335 93 0 93 0 -1 -252z m1770 -83 l0 -335 -73 0 -73 0 0 47 c1 55 -13 64 -36
24 -27 -48 -88 -71 -189 -71 -48 0 -91 5 -94 10 -3 6 -16 10 -28 10 -40 0 -87
38 -109 87 -17 39 -20 61 -16 147 6 172 44 207 234 214 97 4 116 2 151 -17 27
-13 43 -29 47 -46 4 -15 12 -25 17 -23 7 2 11 53 10 146 l-2 142 81 0 80 0 0
-335z m-3817 315 c118 -19 162 -58 173 -152 l7 -57 -89 -3 -89 -3 -15 30 c-20
39 -39 43 -205 44 -152 1 -197 -7 -225 -40 -37 -41 -40 -222 -6 -274 26 -39
54 -45 220 -45 178 0 212 8 224 53 l8 32 90 3 90 3 -6 -73 c-8 -88 -21 -112
-80 -141 -43 -21 -56 -22 -315 -22 -295 0 -320 4 -381 57 -18 16 -38 46 -44
66 -13 47 -13 356 0 401 17 61 72 105 153 121 59 11 420 12 490 0z m-3161
-122 l3 -53 133 -3 132 -3 0 -49 0 -50 -135 0 -135 0 0 -109 c0 -102 2 -111
22 -125 30 -21 96 -20 120 1 10 9 18 27 18 40 0 22 3 23 65 23 l65 0 0 -49 c0
-62 -33 -105 -93 -123 -23 -6 -46 -15 -51 -20 -6 -4 -40 -8 -76 -8 -36 0 -70
4 -75 8 -6 5 -28 14 -51 20 -22 6 -51 23 -65 38 -22 24 -24 35 -29 162 l-5
137 -42 3 -43 3 0 50 c0 49 0 49 33 49 44 0 57 15 57 67 l0 43 74 0 75 0 3
-52z m6093 -58 l135 0 0 -50 0 -49 -132 -3 -133 -3 -3 -112 -3 -112 30 -16
c63 -32 131 -9 131 46 l0 29 65 0 65 0 0 -45 c0 -66 -22 -101 -82 -130 -103
-50 -294 -24 -338 46 -11 17 -16 63 -20 159 l-5 135 -42 3 -43 3 0 50 0 49 45
0 45 0 0 50 0 49 73 3 72 3 3 -52 3 -53 134 0z m-7557 -20 c60 -37 72 -70 72
-206 0 -109 -2 -124 -23 -155 -12 -19 -40 -43 -62 -53 -22 -11 -48 -23 -57
-28 -24 -11 -335 -10 -343 1 -3 5 -19 12 -35 16 -83 18 -117 97 -108 256 6
100 20 135 67 166 33 22 42 23 245 23 193 0 214 -2 244 -20z m672 -107 c0 -71
3 -138 6 -151 10 -36 54 -52 143 -52 75 0 83 2 113 29 l33 29 3 136 4 136 74
0 74 0 0 -235 0 -235 -78 0 -77 0 3 45 c5 54 -8 58 -47 16 -16 -17 -41 -33
-57 -36 -16 -3 -37 -10 -46 -16 -23 -12 -93 -12 -116 0 -9 5 -39 15 -65 22
-50 13 -97 52 -109 91 -3 13 -6 96 -7 186 l-1 162 75 0 75 0 0 -127z m1372
-108 l3 -235 -77 0 -78 0 0 235 0 235 75 0 74 0 3 -235z m699 212 c19 -12 41
-36 49 -52 20 -40 26 -213 10 -271 -14 -50 -57 -92 -102 -101 -15 -3 -31 -10
-34 -14 -7 -11 -319 -12 -342 -1 -9 5 -35 17 -57 28 -63 30 -85 84 -85 209 0
118 20 173 72 205 30 18 50 20 244 20 203 0 212 -1 245 -23z m349 -12 c0 -25
4 -35 15 -35 9 0 18 7 21 15 3 8 21 24 39 35 27 17 49 20 142 20 93 0 115 -3
153 -22 73 -37 83 -69 88 -275 l5 -173 -82 0 -81 0 0 150 c0 147 -1 152 -25
175 -22 23 -32 25 -113 25 -85 0 -92 -2 -120 -28 -37 -35 -45 -77 -40 -220 l3
-102 -77 0 -78 0 0 235 0 235 75 0 75 0 0 -35z m2383 10 c20 -8 48 -32 62 -52
23 -35 25 -46 25 -156 0 -135 -14 -178 -72 -212 -28 -16 -57 -20 -190 -23
-189 -5 -256 2 -300 32 -53 35 -63 66 -63 196 0 136 17 184 75 212 49 24 408
26 463 3z m3257 -375 l0 -60 -55 0 -55 0 0 60 0 60 55 0 55 0 0 -60z m-2890
-5 l0 -55 -60 0 -60 0 0 55 0 55 60 0 60 0 0 -55z m330 -9 c0 -118 -31 -166
-106 -166 -39 0 -44 3 -44 23 0 16 9 26 30 34 23 9 30 18 30 37 0 16 -6 26
-15 26 -12 0 -15 13 -15 55 l0 55 60 0 60 0 0 -64z"/>
<path d="M15703 2113 c-39 -8 -53 -41 -53 -119 0 -66 2 -74 26 -93 23 -18 41
-21 128 -21 61 0 111 5 126 13 51 25 63 146 21 199 -17 20 -28 23 -122 24 -57
1 -114 0 -126 -3z"/>
<path d="M7340 2117 c-47 -16 -62 -48 -57 -126 5 -92 18 -101 159 -101 102 0
110 1 133 25 21 21 25 33 25 88 0 78 -17 104 -75 117 -55 13 -143 11 -185 -3z"/>
<path d="M10080 2118 c-39 -14 -70 -64 -70 -111 0 -39 25 -93 48 -106 12 -6
68 -11 125 -11 127 0 146 10 154 82 8 68 -4 115 -32 134 -33 21 -177 29 -225
12z"/>
<path d="M12801 2091 c-21 -16 -26 -30 -29 -84 -3 -38 1 -73 8 -86 17 -33 70
-51 150 -51 78 0 133 18 149 48 6 12 11 48 11 82 0 51 -4 65 -25 85 -23 24
-31 25 -132 25 -90 0 -112 -4 -132 -19z"/>
</g>
</svg>
